<?xml version="1.0" standalone="no"?>
<!DOCTYPE svg PUBLIC "-//W3C//DTD SVG 20010904//EN"
 "http://www.w3.org/TR/2001/REC-SVG-20010904/DTD/svg10.dtd">
<svg version="1.0" xmlns="http://www.w3.org/2000/svg"
 width="1280.000000pt" height="1280.000000pt" viewBox="0 0 1280.000000 1280.000000"
 preserveAspectRatio="xMidYMid meet">

<g transform="translate(0.000000,1280.000000) scale(0.100000,-0.100000)"
fill="#ffffff" stroke="none">
<path d="M895 11898 c-3 -7 -4 -476 -3 -1043 l3 -1030 1040 0 1040 0 0 1040 0
1040 -1038 3 c-825 2 -1039 0 -1042 -10z m1780 -1033 l0 -740 -740 0 -740 0
-3 730 c-1 402 0 736 3 743 3 10 157 12 742 10 l738 -3 0 -740z"/>
<path d="M1490 10865 l0 -445 445 0 445 0 0 445 0 445 -445 0 -445 0 0 -445z"/>
<path d="M3282 11898 c-14 -14 -17 -554 -4 -576 7 -9 73 -12 298 -10 l289 3 0
295 0 295 -285 3 c-214 2 -289 -1 -298 -10z"/>
<path d="M4764 11897 c-2 -7 -3 -74 -2 -148 l3 -134 148 -3 147 -3 0 -444 0
-444 -147 -3 -148 -3 0 -145 0 -145 147 -3 147 -3 3 148 3 148 145 5 145 5 0
440 0 440 -147 3 -147 3 -3 147 -3 147 -143 3 c-111 2 -144 0 -148 -11z"/>
<path d="M5667 11904 c-4 -4 -7 -72 -7 -151 l0 -143 145 0 145 0 0 -150 0
-150 -145 0 -146 0 3 -147 3 -148 140 0 140 0 3 148 3 147 149 0 149 0 3 -147
3 -148 295 0 295 0 3 148 3 147 144 0 145 0 0 -150 0 -150 -145 0 -145 0 0
-145 0 -145 145 0 145 0 0 145 0 144 148 3 147 3 0 295 0 295 -145 5 -145 5
-5 145 -5 145 -140 0 -140 0 -5 -145 -5 -145 -147 -3 -147 -3 -3 148 -3 148
-145 0 -145 0 -3 -147 -3 -148 -149 0 -149 0 -3 148 -3 147 -136 3 c-74 1
-138 -1 -142 -4z m881 -441 l-3 -148 -147 -3 -148 -3 0 151 0 150 150 0 151 0
-3 -147z"/>
<path d="M8634 11897 c-2 -7 -3 -74 -2 -148 l3 -134 145 -5 145 -5 0 -145 0
-145 -145 -5 -145 -5 -5 -145 -5 -145 -145 -5 -145 -5 -1 -140 -1 -140 -294
-5 -294 -5 -3 -147 -3 -147 -147 -3 -147 -3 -5 -295 -5 -295 -147 -3 -148 -3
-2 298 -3 298 -142 3 -142 3 -3 147 -3 147 -145 0 -145 0 -3 -148 -3 -148
-147 3 -147 3 -5 145 -5 145 -290 0 -290 0 -3 -147 -3 -147 -147 -3 -147 -3
-3 -147 -3 -147 -147 -3 -147 -3 -5 -145 -5 -145 -145 0 -145 0 -3 148 -3 147
-144 0 -145 0 0 134 c0 74 -3 141 -6 150 -5 14 -28 16 -150 16 l-144 0 0 139
c0 103 -3 141 -13 150 -9 7 -109 12 -298 13 l-284 3 -3 143 -3 143 -147 -3
-147 -3 -3 -579 c-1 -426 1 -582 9 -593 9 -11 41 -13 148 -11 l136 3 5 145 5
145 148 3 147 3 0 -296 0 -295 150 0 150 0 0 -150 0 -150 -297 -2 -298 -3 -3
-147 -3 -147 -147 -3 -147 -3 -5 -145 -5 -145 -142 -3 -142 -3 -3 148 -3 148
-592 3 -592 2 -3 148 -3 147 -145 0 -145 0 -5 -145 -5 -145 -295 -5 -295 -5
-3 -879 c-1 -641 1 -882 9 -892 9 -11 45 -14 150 -14 l139 0 -2 -292 -3 -293
-145 -5 -145 -5 -3 -289 c-2 -225 1 -291 10 -298 7 -4 75 -8 151 -8 l137 0 0
-145 0 -145 150 0 150 0 0 145 0 146 148 -3 147 -3 3 -142 3 -143 294 0 295 0
-2 -297 -3 -298 -145 0 -145 0 -5 145 -5 145 -140 0 -140 0 0 -295 0 -295 442
-3 442 -2 3 -146 3 -145 145 -3 145 -3 3 -146 3 -146 -148 -3 -148 -3 0 -145
0 -145 148 -3 147 -3 0 -149 0 -150 -300 0 -300 0 -2 298 -3 297 -142 3 c-141
3 -143 2 -148 -20 -3 -13 -4 -147 -3 -298 l3 -275 148 -3 147 -3 0 -143 c0
-122 2 -145 16 -150 9 -3 138 -6 288 -6 198 0 275 3 284 12 8 8 12 56 12 150
l0 138 295 0 296 0 -3 -147 -3 -148 -139 -2 c-76 -1 -142 -5 -147 -10 -6 -6
-8 -70 -7 -144 l3 -134 148 -3 147 -3 0 146 0 145 150 0 150 0 0 -295 0 -294
-147 -3 -148 -3 0 -145 0 -145 145 0 145 0 3 148 3 147 149 0 150 0 0 -288 c0
-211 -3 -291 -12 -300 -8 -8 -56 -12 -150 -12 l-138 0 -2 -292 -3 -293 -145
-5 -145 -5 0 -295 0 -295 1029 -3 c752 -1 1032 1 1042 9 11 9 14 46 14 150 l0
139 145 0 145 0 0 -137 c0 -76 4 -144 8 -151 7 -9 43 -12 148 -10 l139 3 5
145 5 145 147 3 147 3 3 -148 3 -148 142 -3 c169 -3 155 -19 151 168 l-3 125
-147 3 -148 3 0 149 0 149 148 3 147 3 0 145 0 145 -147 3 -148 3 0 145 0 145
148 -3 147 -3 3 -142 3 -143 144 0 145 0 0 295 0 295 298 -2 297 -3 3 -293 2
-293 148 3 147 3 3 143 3 143 146 -3 147 -3 -1 -30 c0 -16 -1 -148 -2 -292
l-1 -262 -142 -3 -143 -3 -3 -148 -3 -148 -147 3 -147 3 -5 145 -5 145 -145 0
-145 0 0 -295 0 -295 295 0 295 0 3 147 3 148 292 2 292 3 3 592 2 592 148 3
147 3 3 148 3 148 147 -3 147 -3 3 -297 2 -298 -150 0 -150 0 2 -442 3 -443
145 -5 145 -5 5 -145 5 -145 440 0 440 0 0 145 0 145 -292 3 -293 2 0 134 c0
74 -3 141 -6 150 -5 14 -28 16 -150 16 l-144 0 0 295 0 296 148 -3 147 -3 3
-142 3 -143 144 0 144 0 3 143 3 142 148 3 147 3 0 -146 0 -145 150 0 150 0 2
-297 3 -298 293 -3 292 -2 0 150 0 150 150 0 149 0 3 148 3 147 145 0 145 0 5
-145 5 -145 145 0 145 0 0 290 0 290 -145 5 -145 5 -5 145 -5 145 -148 3 -148
3 3 147 3 147 295 5 295 5 0 290 0 290 -145 5 -145 5 -3 147 -3 147 148 3 148
3 3 1029 c1 752 -1 1032 -9 1042 -9 11 -46 14 -150 14 l-139 0 0 145 0 145
134 0 c74 0 141 3 150 6 14 5 16 54 16 445 l0 439 -22 5 c-13 3 -79 4 -148 3
l-125 -3 -5 -145 -5 -145 -145 0 -145 0 -3 292 -2 292 147 3 148 3 3 147 3
147 147 3 147 3 3 1029 c1 752 -1 1032 -9 1042 -9 11 -67 14 -284 14 -151 0
-280 -3 -289 -6 -14 -5 -16 -41 -16 -300 l0 -294 -442 -2 -443 -3 -3 -295 -2
-295 150 0 150 0 0 147 0 148 293 2 292 3 3 148 3 148 147 -3 147 -3 0 -440 0
-440 -145 -5 -145 -5 -3 -147 -3 -148 -149 0 -150 0 0 294 c0 227 -3 295 -12
297 -7 2 -71 4 -143 4 l-130 0 -5 -295 -5 -295 -147 -3 -148 -3 -2 298 -3 297
-285 2 c-188 2 -289 -1 -297 -8 -10 -8 -13 -78 -13 -299 l0 -289 -292 -2 -293
-3 -5 -145 -5 -145 -145 0 -145 0 -5 145 -5 145 -145 5 -145 5 -3 443 -2 443
-148 -3 -147 -3 0 -743 0 -742 -147 0 -147 0 -3 148 -3 147 -85 0 -85 0 -3
-139 c-2 -105 1 -141 10 -148 7 -4 48 -8 91 -8 l77 0 0 -295 0 -295 145 0 145
0 0 279 c0 154 3 286 6 295 6 14 68 16 600 16 l595 0 -3 -142 -3 -143 -145 -5
-145 -5 0 -295 0 -295 145 -5 145 -5 3 -147 3 -148 -448 -2 -448 -3 0 -140 0
-140 445 0 445 0 3 143 3 142 144 0 145 0 0 -295 0 -295 -292 -2 -293 -3 -3
-298 -2 -297 -150 0 -149 0 -3 147 -3 148 -297 3 -297 2 0 -140 c0 -77 -3
-144 -6 -150 -4 -6 -112 -10 -296 -10 l-289 0 0 -144 c0 -140 -1 -144 -22
-149 -12 -4 -143 -6 -291 -6 -147 0 -272 -3 -277 -6 -6 -4 -10 -68 -10 -146
l0 -139 -295 0 -295 0 0 144 c0 106 -3 145 -12 149 -7 2 -69 5 -138 5 -69 0
-131 1 -137 1 -10 1 -13 37 -13 146 l0 145 150 0 149 0 3 -147 3 -148 138 2
c75 1 142 5 147 8 6 4 10 66 10 146 l0 139 290 0 c224 0 292 3 295 13 8 27 13
144 6 155 -6 9 -80 12 -302 10 l-294 -3 0 -85 0 -85 -147 -3 -147 -3 -3 88 -3
88 -145 0 -145 0 -5 -85 -5 -85 -144 0 -145 0 0 85 -1 85 -339 3 c-280 2 -342
5 -359 17 -12 8 -29 15 -39 15 -21 0 -125 69 -159 106 -39 44 -89 123 -89 142
0 10 -6 27 -14 38 -8 11 -16 38 -18 60 l-3 39 -380 0 -380 0 0 -295 0 -295
137 -3 c123 -2 138 -1 146 15 6 10 9 72 8 138 -1 66 0 126 2 133 3 9 42 12
148 12 l144 0 -2 -297 -3 -298 -275 -2 c-151 -1 -283 -2 -292 -3 -16 0 -18
-14 -18 -145 l0 -145 139 0 c99 0 141 -4 148 -12 11 -14 16 -512 7 -561 l-6
-28 -141 3 -142 3 -5 145 -5 145 -147 3 -148 3 -2 295 -3 295 -145 0 -145 0
-3 -146 -3 -146 -147 3 c-122 3 -147 6 -148 18 -1 8 -2 74 -3 146 l-1 131
-145 -1 -145 -1 0 148 0 148 146 -3 146 -3 -1 -130 c-1 -72 1 -138 4 -146 5
-13 30 -16 151 -18 l144 -2 0 151 0 150 -150 0 -150 0 0 150 0 149 148 3 147
3 3 147 3 147 147 3 147 3 0 145 0 145 -147 3 -148 3 0 144 0 144 148 3 147 3
5 145 5 145 145 0 145 0 3 -292 2 -293 144 0 c128 0 145 2 151 18 3 9 6 136 5
282 -1 146 -1 271 -1 277 1 9 40 13 144 15 l142 3 0 145 0 145 -142 3 -141 3
-4 137 c-1 75 -7 143 -11 150 -6 9 -47 12 -148 12 l-139 0 2 443 3 442 143 3
c78 1 143 -1 144 -5 0 -5 2 -135 3 -291 1 -168 6 -287 12 -293 6 -6 66 -8 144
-7 l134 3 3 298 2 297 155 0 155 0 66 45 c36 25 72 45 80 45 9 0 25 5 37 12
12 7 40 14 62 17 l40 6 0 85 0 85 -147 3 -148 3 0 148 0 149 123 -4 c67 -2
134 -1 150 2 l28 6 -3 141 -3 142 -145 0 -145 0 -5 -145 -5 -145 -205 4 c-113
2 -244 0 -292 -4 l-88 -7 0 -128 c0 -71 -3 -135 -6 -144 -5 -14 -28 -16 -150
-16 l-144 0 0 139 c0 94 -4 142 -11 147 -16 9 -34 10 -331 12 l-258 2 0 295 0
296 148 -3 147 -3 5 -145 5 -145 145 0 145 0 3 298 2 297 443 -2 442 -3 5
-145 5 -145 297 -3 297 -2 3 -148 3 -147 140 0 140 0 3 148 3 147 149 0 150 0
0 -297 0 -298 -293 0 -292 0 -3 -237 -2 -238 589 0 589 0 6 23 c3 12 6 52 6
90 l0 67 145 0 146 0 -3 148 -3 147 -90 3 c-49 2 -114 0 -142 -3 l-53 -6 0
-145 0 -144 -297 2 -298 3 0 145 0 145 130 1 c72 0 138 2 148 2 16 2 17 23 17
297 l0 296 148 -3 147 -3 5 -145 5 -145 140 0 140 0 5 145 5 145 145 5 145 5
3 147 3 147 147 3 147 3 5 145 5 145 134 3 c90 2 138 -1 147 -9 11 -9 14 -66
14 -300 l0 -288 -147 -3 -148 -3 -5 -145 -5 -145 -145 -5 -145 -5 0 -290 0
-290 295 0 295 0 3 442 2 443 293 2 292 3 5 145 5 145 295 5 295 5 3 139 c2
105 -1 141 -10 148 -7 4 -207 8 -444 8 -336 0 -433 3 -437 13 -2 6 -5 139 -6
295 l-2 282 150 0 150 0 3 -147 3 -148 145 0 145 0 5 145 5 145 145 0 145 0 5
-145 5 -145 134 -3 c90 -2 138 1 147 9 12 10 14 129 14 733 0 396 -4 726 -8
733 -5 9 -51 13 -147 15 l-140 3 -5 295 -5 295 -293 3 c-234 2 -294 0 -298
-11z m291 -1327 l0 -145 -145 0 -145 0 -3 134 c-2 91 1 138 9 147 9 12 40 14
148 12 l136 -3 0 -145z m-4755 -300 l0 -150 149 0 149 0 -3 -137 c-1 -79 2
-143 8 -150 7 -9 49 -13 148 -13 l139 0 0 -145 0 -145 -295 0 -295 0 0 295 0
295 -150 0 -150 0 0 143 c0 79 3 147 7 150 3 4 71 7 150 7 l143 0 0 -150z
m1778 -2 l3 -148 150 0 150 0 -3 -147 -3 -148 -134 -3 c-90 -2 -138 1 -147 9
-11 9 -14 44 -14 150 l0 139 -145 0 -145 0 0 -139 c0 -106 -3 -141 -14 -150
-9 -8 -57 -11 -147 -9 l-134 3 -3 148 -3 147 151 0 150 0 0 150 0 151 143 -3
142 -3 3 -147z m904 -145 l3 -298 142 -3 142 -3 3 -142 3 -142 125 -2 c188 -4
170 12 170 -158 l0 -145 -445 0 -445 0 0 -150 0 -150 -150 0 -151 0 3 148 3
147 148 3 147 3 0 594 0 595 150 0 150 0 2 -297z m1478 147 l0 -150 -145 0
-144 0 -3 -147 -3 -148 -145 0 -145 0 -3 298 -2 297 295 0 295 0 0 -150z
m-2682 -752 c8 -8 12 -56 12 -150 l0 -137 143 -3 142 -3 3 -147 3 -148 -146 0
-145 0 0 150 0 150 -150 0 -150 0 0 143 c0 79 3 147 7 150 12 13 268 8 281 -5z
m-3863 -1036 l0 -143 -120 -5 c-66 -2 -132 -1 -147 2 l-28 6 0 144 0 145 148
-3 147 -3 0 -143z m1195 9 c0 -106 -3 -141 -14 -150 -9 -8 -58 -11 -147 -9
l-134 3 -3 -147 -3 -148 593 -2 593 -3 0 -145 0 -145 -590 0 -590 0 -3 148 -3
148 -147 -3 -147 -3 -3 -447 -2 -448 150 0 150 0 0 150 0 150 593 -2 592 -3 0
-145 0 -145 -295 -5 -295 -5 0 -140 0 -140 448 -3 448 -2 -3 -148 -3 -147
-295 -5 -295 -5 -3 -297 -2 -298 -138 0 c-94 0 -142 4 -150 12 -9 9 -12 89
-12 300 l0 288 -295 0 -296 0 3 -147 3 -148 145 -5 145 -5 3 -125 c4 -186 18
-170 -153 -170 l-145 0 0 -145 0 -145 138 0 c94 0 142 -4 150 -12 8 -8 12 -56
12 -150 l0 -138 145 0 c122 0 145 -2 145 -15 1 -8 1 -75 1 -147 l0 -133 -145
-3 -146 -3 0 -149 0 -150 -150 0 -151 0 3 148 3 147 148 3 147 3 0 149 0 150
-150 0 -150 0 0 150 0 150 -150 0 -150 0 0 145 0 145 -138 0 c-94 0 -142 4
-150 12 -8 8 -12 56 -12 150 l0 138 -145 0 -144 0 -3 148 -3 147 -147 3 -148
3 0 294 0 295 -150 0 -150 0 2 448 3 447 297 3 297 2 3 148 3 147 290 2 290 1
3 134 c1 73 4 139 7 146 3 9 73 12 300 12 l295 0 0 -139z m1778 -603 l3 -148
-146 0 -145 0 -1 130 c-1 72 -2 136 -3 143 -1 6 -1 15 2 20 2 4 67 6 145 5
l142 -3 3 -147z m5662 -298 l0 -151 148 3 147 3 0 148 0 147 147 0 147 0 3
-147 3 -148 148 -3 147 -3 0 151 0 151 148 -3 147 -3 3 -147 3 -148 -151 0
-150 0 0 -150 0 -150 -295 0 -294 0 -3 -142 -3 -143 -145 -5 -145 -5 -3 -147
-3 -147 148 -3 148 -3 3 -147 3 -148 144 0 145 0 0 -138 c0 -94 4 -142 12
-150 8 -8 56 -12 150 -12 l137 0 3 148 3 147 145 0 145 0 3 -147 3 -148 -151
0 -150 0 0 -145 0 -145 -138 0 c-94 0 -142 -4 -150 -12 -8 -8 -12 -56 -12
-150 l0 -138 -442 2 -443 3 0 145 0 145 295 5 295 5 3 293 2 292 -297 -2 -298
-3 -5 -145 -5 -145 -147 -3 -148 -3 0 151 0 150 -143 0 c-79 0 -146 2 -148 4
-2 2 -3 70 -1 150 l3 146 292 2 292 3 3 293 2 292 -293 0 c-162 0 -296 2 -298
4 -2 2 -3 70 -1 150 l3 146 295 0 294 0 0 143 c0 79 3 147 7 150 3 4 71 7 150
7 l143 0 0 -150z m-8932 -1492 l3 -148 -151 0 -150 0 0 143 c0 79 3 147 7 151
4 3 70 5 147 4 l141 -3 3 -147z m2082 -588 l0 -150 -150 0 -150 0 0 138 c0 94
4 142 12 150 8 8 56 12 150 12 l138 0 0 -150z m6850 -600 l5 -145 145 -5 145
-5 5 -145 5 -145 140 0 140 0 5 295 5 295 295 0 295 0 0 -145 0 -145 -145 -5
-145 -5 -3 -148 -3 -148 133 1 c73 1 141 1 151 1 16 -1 17 -29 17 -446 l0
-445 -592 2 -593 3 -3 147 -3 148 -297 2 -297 3 -5 145 -5 145 -142 3 -143 3
0 144 c0 109 3 145 13 145 9 1 537 0 569 0 4 0 9 -64 10 -142 l3 -143 148 -3
147 -3 0 146 0 145 -92 2 c-51 1 -118 3 -148 3 l-55 0 -3 147 -3 147 -147 3
-147 3 -3 134 c-1 74 0 141 2 148 4 11 64 13 298 11 l293 -3 5 -145z m-5062
-297 c2 -104 6 -143 15 -144 66 -4 267 0 276 5 7 5 11 53 11 147 l0 139 145 0
145 0 2 -292 3 -293 298 -3 297 -2 0 -300 0 -300 150 0 150 0 0 150 0 150 145
0 145 0 0 150 0 151 148 -3 147 -3 5 -145 5 -145 145 0 145 0 5 145 5 145 145
0 145 0 0 -295 0 -295 -295 -5 -295 -5 -3 -142 c-3 -169 13 -155 -172 -151
l-125 3 -3 148 -3 147 -145 0 -145 0 3 -147 3 -148 142 -3 142 -3 3 -142 3
-142 593 -3 c470 -2 592 0 592 10 1 7 2 139 3 293 l2 280 295 5 295 5 0 295 0
295 -145 0 -145 0 -5 -145 -5 -145 -142 -3 -141 -3 -7 54 c-8 65 -3 523 6 532
4 3 69 7 145 8 l139 2 5 145 5 145 148 3 147 3 0 -146 c0 -172 -15 -158 171
-153 l124 3 3 -147 3 -147 147 -3 147 -3 0 -145 0 -145 -145 -5 -145 -5 -3
-292 c-1 -161 -3 -294 -5 -295 -1 -1 -135 -5 -297 -8 l-295 -5 0 -140 0 -140
145 -5 145 -5 3 -147 3 -147 -148 -3 -148 -3 -3 -147 -3 -148 -144 0 c-80 0
-146 3 -146 8 -1 4 -3 66 -5 137 -2 72 -3 136 -4 143 0 10 -122 12 -592 10
l-593 -3 -3 -148 -3 -147 -292 2 -292 3 0 145 0 145 145 5 145 5 3 142 c3 141
2 143 -20 148 -13 3 -347 4 -743 3 l-720 -3 -3 -147 -3 -148 443 -2 443 -3 0
-145 0 -145 -443 -3 -443 -2 3 -148 3 -147 293 -3 292 -2 0 -145 0 -144 -142
-3 -143 -3 -3 -298 -2 -298 -148 3 -147 3 -5 145 -5 145 -145 5 -145 5 -5 440
-5 440 -147 3 -148 3 0 -296 0 -295 -145 0 c-109 0 -145 3 -145 13 -1 16 -1
560 0 570 0 4 65 7 145 7 l145 0 0 150 0 150 -295 0 -295 0 0 295 0 295 144 0
c110 0 145 -3 149 -13 3 -7 5 -67 5 -133 0 -65 1 -125 1 -131 1 -9 40 -13 144
-15 l142 -3 3 -148 3 -148 147 3 147 3 3 293 2 292 -139 0 c-105 0 -141 3
-150 14 -8 9 -11 96 -9 297 l3 284 145 0 145 0 5 -145 5 -145 145 0 145 0 5
145 5 145 148 3 147 3 0 138 c0 103 -3 141 -13 150 -9 7 -109 12 -298 13
l-284 3 -3 293 -2 293 147 -3 148 -3 3 -142z m4167 -3 l0 -145 -147 -3 -148
-3 0 151 0 151 148 -3 147 -3 0 -145z m-6255 -590 l0 -150 -145 0 -145 0 0
150 0 150 145 0 145 0 0 -150z m598 -297 l-3 -148 -147 -3 -148 -3 0 144 c0
79 3 147 7 150 3 4 71 7 150 7 l144 0 -3 -147z m7442 -598 l0 -145 -138 0
c-94 0 -142 -4 -150 -12 -9 -9 -12 -89 -12 -300 l0 -288 150 0 151 0 -3 -147
-3 -148 -145 0 -145 0 -3 147 -3 147 -142 3 -142 3 -3 435 c-1 239 0 440 2
445 2 6 107 9 295 7 l291 -3 0 -144z m-892 -297 l-3 -443 -440 0 -440 0 -3
443 -2 442 445 0 445 0 -2 -442z m592 -1043 l0 -295 -145 0 -145 0 0 138 c0
94 -4 142 -12 150 -8 8 -56 12 -150 12 l-138 0 0 145 0 145 295 0 295 0 0
-295z m-4460 -145 l0 -150 -297 2 -298 3 -3 134 c-1 74 0 141 2 148 4 10 68
13 301 13 l295 0 0 -150z"/>
<path d="M1790 7890 l0 -150 145 0 146 0 -3 148 -3 147 -142 3 -143 3 0 -151z"/>
<path d="M1490 7290 l0 -149 148 -3 147 -3 3 -142 3 -142 142 -3 142 -3 3
-298 2 -298 148 3 147 3 5 145 5 145 148 3 147 3 0 149 0 149 148 3 147 3 0
140 0 140 -147 3 -148 3 0 -146 0 -146 -147 3 -148 3 -3 143 -3 142 -137 0
c-94 0 -142 4 -150 12 -8 8 -12 56 -12 150 l0 138 -295 0 -295 0 0 -150z"/>
<path d="M10120 7290 l0 -151 148 3 147 3 3 148 3 147 -151 0 -150 0 0 -150z"/>
<path d="M11010 4318 l0 -148 -295 0 -295 0 0 -150 0 -150 443 2 442 3 3 292
c2 284 2 292 -18 298 -11 3 -78 5 -150 3 l-130 -3 0 -147z"/>
<path d="M5662 3573 l3 -298 140 0 140 0 5 145 5 145 148 3 147 3 0 -145 c0
-122 2 -145 16 -150 20 -8 248 -8 268 0 14 5 16 28 16 150 l0 144 -150 0 -150
0 0 150 0 150 -295 0 -295 0 2 -297z"/>
<path d="M9824 2967 c-2 -7 -3 -74 -2 -148 l3 -134 145 0 145 0 0 145 0 145
-143 3 c-111 2 -144 0 -148 -11z"/>
<path d="M9825 11898 c-3 -7 -4 -476 -3 -1043 l3 -1030 1040 0 1040 0 3 1034
c2 821 0 1036 -10 1043 -7 4 -476 8 -1041 8 -813 0 -1029 -3 -1032 -12z m1780
-1033 l0 -740 -740 0 -740 0 -3 730 c-1 402 0 736 3 743 3 10 157 12 742 10
l738 -3 0 -740z"/>
<path d="M10420 10865 l0 -445 445 0 445 0 0 445 0 445 -445 0 -445 0 0 -445z"/>
<path d="M4174 11597 c-2 -7 -3 -74 -2 -148 l3 -134 141 -3 141 -3 7 38 c8 49
8 227 0 247 -5 14 -28 16 -145 16 -105 0 -141 -3 -145 -13z"/>
<path d="M7744 11597 c-2 -7 -3 -74 -2 -148 l3 -134 291 -3 c228 -2 293 0 296
10 2 7 2 75 0 151 l-4 137 -289 0 c-228 0 -291 -3 -295 -13z"/>
<path d="M4468 10998 c-3 -10 -2 -240 1 -270 1 -5 66 -8 146 -8 l145 0 0 145
0 145 -144 0 c-106 0 -145 -3 -148 -12z"/>
<path d="M1797 9523 c-4 -3 -7 -71 -7 -150 l0 -143 145 0 145 0 0 144 c0 122
-2 145 -16 150 -21 8 -259 8 -267 -1z"/>
<path d="M2687 9523 c-4 -3 -7 -71 -7 -150 l0 -144 148 3 147 3 3 134 c2 90
-1 138 -9 147 -9 11 -43 14 -144 14 -72 0 -135 -3 -138 -7z"/>
<path d="M10132 9522 c-9 -7 -12 -43 -10 -148 l3 -139 443 -3 443 -2 -3 147
-3 148 -430 2 c-236 2 -436 -1 -443 -5z"/>
<path d="M9536 9222 c-3 -5 -6 -71 -7 -148 l-1 -139 146 -3 145 -3 3 -147 3
-147 145 0 145 0 0 145 0 145 -147 3 -147 3 -3 147 -3 147 -137 3 c-75 1 -139
-1 -142 -6z"/>
<path d="M4469 8928 c-6 -18 -4 -268 3 -281 8 -16 23 -17 146 -15 l137 3 3
148 3 147 -146 0 c-80 0 -145 -1 -146 -2z"/>
<path d="M9230 8780 l0 -150 -150 0 -150 0 0 -295 0 -295 298 2 297 3 3 137
c2 123 1 138 -15 146 -10 6 -72 10 -138 10 -66 0 -126 0 -132 1 -10 1 -13 37
-13 146 l0 145 144 0 c122 0 145 2 150 16 3 9 6 76 6 150 l0 134 -150 0 -150
0 0 -150z"/>
<path d="M6236 7509 c-153 -49 -248 -192 -222 -333 l6 -34 30 28 c39 37 98 43
336 38 161 -3 183 -6 221 -26 54 -28 82 -69 99 -144 20 -86 31 -96 58 -55 30
44 69 57 107 34 30 -17 30 -17 23 6 -4 12 -8 67 -9 122 -1 91 -4 106 -33 167
-51 104 -127 160 -273 202 -80 23 -265 20 -343 -5z"/>
<path d="M6416 7064 c-22 -21 -12 -30 39 -38 46 -7 68 3 63 30 -5 26 -78 32
-102 8z"/>
<path d="M6102 7051 c-10 -6 -8 -10 10 -14 40 -11 68 -8 68 8 0 17 -55 21 -78
6z"/>
<path d="M6446 6941 c-15 -16 -15 -20 -1 -31 21 -18 45 -5 45 25 0 30 -20 33
-44 6z"/>
<path d="M6110 6925 c0 -8 9 -15 20 -15 11 0 20 7 20 15 0 8 -9 15 -20 15 -11
0 -20 -7 -20 -15z"/>
<path d="M6835 6890 c-3 -6 5 -10 19 -10 14 0 28 5 31 10 3 6 -5 10 -19 10
-14 0 -28 -4 -31 -10z"/>
<path d="M6020 6830 c0 -32 4 -49 10 -45 6 3 10 24 10 45 0 21 -4 42 -10 45
-6 4 -10 -13 -10 -45z"/>
<path d="M6794 6867 c-9 -24 6 -44 18 -22 7 11 6 21 -1 28 -7 7 -12 6 -17 -6z"/>
<path d="M8635 6838 c-3 -7 -4 -141 -3 -298 l3 -285 145 0 145 0 0 295 0 295
-143 3 c-109 2 -144 0 -147 -10z"/>
<path d="M6263 6812 c-10 -6 -10 -12 1 -27 12 -16 19 -18 43 -10 38 14 37 39
-2 43 -16 1 -36 -1 -42 -6z"/>
<path d="M6767 6786 c-4 -10 -5 -21 -2 -24 9 -9 17 6 13 25 -3 17 -4 17 -11
-1z"/>
<path d="M6561 6743 c-1 -11 25 -43 35 -43 2 0 4 7 4 15 0 8 -6 15 -14 15 -8
0 -17 6 -19 13 -4 8 -6 9 -6 0z"/>
<path d="M6730 6740 c0 -5 5 -10 10 -10 6 0 10 5 10 10 0 6 -4 10 -10 10 -5 0
-10 -4 -10 -10z"/>
<path d="M6705 6710 c3 -5 8 -10 11 -10 2 0 4 5 4 10 0 6 -5 10 -11 10 -5 0
-7 -4 -4 -10z"/>
<path d="M6668 6683 c7 -3 16 -2 19 1 4 3 -2 6 -13 5 -11 0 -14 -3 -6 -6z"/>
<path d="M6569 6654 c-13 -7 -36 -15 -51 -19 -24 -5 -27 -9 -21 -35 7 -38 -14
-64 -74 -91 -65 -29 -132 -23 -146 15 -3 8 -2 28 3 44 8 29 6 31 -34 46 -52
20 -56 20 -56 0 0 -9 -20 -35 -44 -58 -33 -31 -51 -61 -75 -126 -30 -80 -32
-88 -23 -160 5 -43 10 -59 11 -39 1 42 21 63 51 54 18 -6 20 -14 19 -73 0 -37
-6 -101 -14 -142 -12 -65 -12 -77 1 -86 21 -17 17 -44 -12 -70 -19 -18 -23
-30 -18 -46 16 -53 53 -55 40 -3 -10 40 25 67 77 60 121 -16 260 -23 325 -16
57 5 76 4 85 -7 20 -25 26 15 26 210 1 179 2 188 22 198 15 8 24 8 34 0 8 -7
19 -9 24 -5 6 3 30 10 53 14 30 6 35 9 17 10 -43 2 -53 23 -46 96 9 97 18 109
77 101 29 -4 51 -2 55 4 4 6 -9 10 -32 10 -26 0 -44 6 -56 20 -9 11 -24 20
-34 20 -9 0 -39 7 -67 15 -28 8 -64 17 -81 21 l-30 6 28 14 c15 8 27 16 27 18
0 11 -41 11 -61 0z m-251 -301 c-10 -2 -26 -2 -35 0 -10 3 -2 5 17 5 19 0 27
-2 18 -5z"/>
<path d="M6913 6503 c15 -2 39 -2 55 0 15 2 2 4 -28 4 -30 0 -43 -2 -27 -4z"/>
<path d="M7073 6473 c15 -2 37 -2 50 0 12 2 0 4 -28 4 -27 0 -38 -2 -22 -4z"/>
<path d="M7163 6443 c9 -2 25 -2 35 0 9 3 1 5 -18 5 -19 0 -27 -2 -17 -5z"/>
<path d="M7238 6413 c7 -3 16 -2 19 1 4 3 -2 6 -13 5 -11 0 -14 -3 -6 -6z"/>
<path d="M7270 6397 c0 -4 6 -16 12 -27 11 -18 9 -24 -20 -51 -17 -16 -32 -39
-32 -50 0 -25 -17 -25 -25 1 -3 11 -10 20 -15 20 -4 0 -10 -9 -13 -20 -9 -33
-26 -26 -61 24 -14 21 -36 14 -36 -10 0 -9 12 -28 27 -43 25 -25 29 -26 75
-17 26 6 48 14 48 18 0 4 7 8 15 8 8 0 24 9 36 21 12 12 29 19 39 16 14 -4 20
3 25 29 7 41 1 54 -27 54 -11 0 -27 8 -34 18 -7 9 -14 14 -14 9z"/>
<path d="M6960 6290 c25 -4 49 -4 55 1 5 5 -13 8 -45 8 l-55 -2 45 -7z"/>
<path d="M7331 6234 c0 -11 3 -14 6 -6 3 7 2 16 -1 19 -3 4 -6 -2 -5 -13z"/>
<path d="M7864 6237 c-2 -7 -3 -74 -2 -148 l3 -134 226 -3 c174 -2 228 1 235
10 5 7 8 75 6 151 l-4 137 -229 0 c-179 0 -231 -3 -235 -13z"/>
<path d="M6794 6228 c-4 -6 -7 -31 -6 -55 0 -23 -3 -45 -8 -48 -6 -4 0 -43 16
-103 6 -22 24 -2 24 27 0 15 6 36 14 47 13 17 12 21 -1 37 -15 16 -15 18 2 31
18 13 18 15 -7 45 -18 21 -29 27 -34 19z"/>
<path d="M6888 6203 c6 -2 18 -2 25 0 6 3 1 5 -13 5 -14 0 -19 -2 -12 -5z"/>
<path d="M6938 6113 c4 -74 2 -88 -13 -99 -20 -15 -12 -34 16 -34 21 0 22 5
19 103 -1 42 3 64 15 77 16 17 15 19 -4 29 -11 6 -24 11 -29 11 -4 0 -6 -39
-4 -87z"/>
<path d="M6020 6031 c0 -44 5 -83 10 -86 6 -4 10 23 10 74 0 44 -4 83 -10 86
-6 4 -10 -23 -10 -74z"/>
<path d="M7331 6030 c0 -29 1 -32 10 -17 7 11 7 23 0 35 -9 14 -10 11 -10 -18z"/>
<path d="M7335 5652 l0 -344 -30 -24 c-43 -35 -46 -37 -88 -63 -43 -26 -64
-23 -73 14 -7 29 -24 34 -24 7 0 -30 -51 -70 -95 -75 -22 -2 1 -4 50 -5 98 -2
170 13 225 46 19 12 45 26 57 31 89 40 202 147 205 195 0 17 2 36 3 41 2 6 3
19 4 31 1 13 23 37 62 65 33 24 65 51 70 61 15 28 11 194 -5 207 -23 19 -161
41 -257 41 -98 0 -95 -3 -102 80 -1 19 -2 -120 -2 -308z"/>
<path d="M4765 5937 c-3 -7 -4 -71 -3 -143 l3 -129 85 0 85 0 0 140 0 140 -83
3 c-62 2 -84 -1 -87 -11z"/>
<path d="M6050 5911 c0 -12 6 -21 16 -21 9 0 14 7 12 17 -5 25 -28 28 -28 4z"/>
<path d="M6790 5881 c0 -6 7 -11 16 -11 8 0 29 -14 46 -30 27 -28 29 -35 25
-78 -3 -26 -6 -48 -6 -49 -1 -1 -25 -3 -53 -5 -29 -2 -46 -6 -38 -9 68 -26 91
-33 133 -36 30 -3 47 -1 47 6 0 6 -11 11 -24 11 -29 0 -36 16 -36 84 0 58 12
76 49 76 39 0 12 16 -49 29 -104 23 -110 24 -110 12z"/>
<path d="M6351 5745 c0 -64 -5 -105 -13 -113 -7 -7 -44 -12 -96 -12 -73 0 -83
-2 -78 -16 3 -9 6 -18 6 -20 0 -3 9 0 20 6 11 6 55 11 98 11 l78 0 -4 102 c-4
142 -9 160 -11 42z"/>
<path d="M8047 5653 c-4 -3 -7 -138 -7 -300 l0 -294 146 3 146 3 0 287 c-1
159 -4 292 -7 298 -7 11 -267 14 -278 3z"/>
<path d="M6615 5600 c-5 -8 -37 -11 -109 -10 -55 2 -106 2 -112 1 -19 -2 -24
-42 -8 -58 21 -21 19 -109 -3 -117 -11 -5 -13 -10 -6 -17 7 -7 16 -7 29 0 11
6 32 16 48 21 22 8 26 14 18 22 -20 20 -14 59 8 65 24 6 25 16 5 33 -9 7 -12
17 -7 22 12 12 115 17 130 5 19 -15 37 6 24 28 -7 13 -11 14 -17 5z"/>
<path d="M6170 5527 c0 -24 -6 -49 -12 -55 -10 -10 -10 -15 1 -21 8 -5 20 -7
28 -4 15 6 18 29 4 38 -6 3 -6 18 -1 37 10 32 6 48 -11 48 -5 0 -9 -19 -9 -43z"/>
<path d="M6866 5523 c-3 -10 -10 -37 -16 -60 -6 -25 -22 -52 -40 -66 -25 -21
-27 -27 -15 -37 12 -10 21 -5 50 27 55 58 63 74 58 116 -5 39 -28 51 -37 20z"/>
<path d="M6283 5523 c9 -2 23 -2 30 0 6 3 -1 5 -18 5 -16 0 -22 -2 -12 -5z"/>
<path d="M6611 5516 c-8 -10 -30 -16 -55 -17 -47 0 -28 -12 37 -22 41 -6 56 8
40 38 -9 15 -11 15 -22 1z"/>
<path d="M6110 5430 c0 -5 4 -10 9 -10 6 0 13 5 16 10 3 6 -1 10 -9 10 -9 0
-16 -4 -16 -10z"/>
<path d="M6910 5401 c0 -10 7 -24 15 -31 8 -7 15 -19 15 -26 0 -8 5 -14 10
-14 6 0 10 9 10 20 0 11 -4 20 -10 20 -5 0 -12 11 -16 25 -7 29 -24 34 -24 6z"/>
<path d="M6050 5312 c0 -62 3 -71 29 -96 81 -77 360 -87 645 -22 50 11 65 11
92 0 37 -15 150 -19 158 -5 3 4 -25 13 -62 19 -132 21 -187 33 -212 46 -14 7
-31 11 -37 9 -7 -3 -18 8 -24 24 l-10 28 -21 -27 c-11 -16 -26 -28 -33 -28 -8
0 -18 -8 -24 -17 -8 -15 -21 -17 -83 -15 -62 3 -77 7 -100 30 -18 16 -28 36
-28 53 0 15 -4 31 -10 34 -5 3 -10 -3 -10 -14 0 -32 -56 -64 -122 -69 -49 -4
-64 -1 -93 19 -29 20 -35 30 -35 62 0 20 -4 37 -10 37 -6 0 -10 -29 -10 -68z"/>
<path d="M6350 5369 c0 -5 5 -7 10 -4 6 3 10 8 10 11 0 2 -4 4 -10 4 -5 0 -10
-5 -10 -11z"/>
<path d="M6970 5315 c0 -8 5 -15 10 -15 6 0 10 7 10 15 0 8 -4 15 -10 15 -5 0
-10 -7 -10 -15z"/>
<path d="M1197 5054 c-4 -4 -7 -72 -7 -150 l0 -143 -147 -3 -148 -3 -3 -134
c-2 -84 1 -138 8 -146 8 -10 46 -13 137 -13 70 0 133 2 140 5 10 4 13 40 13
149 l0 143 148 3 147 3 0 145 0 145 -141 3 c-77 1 -143 -1 -147 -4z"/>
<path d="M894 4157 c-2 -7 -3 -74 -2 -148 l3 -134 148 -3 148 -3 -3 -147 -3
-147 -145 -5 -145 -5 -3 -134 c-2 -90 1 -138 9 -147 9 -11 64 -14 284 -14 151
0 280 3 289 6 14 5 16 41 16 300 l0 293 148 3 147 3 3 125 c4 187 18 171 -151
168 l-142 -3 -3 -147 -3 -148 -149 0 -149 0 -3 148 -3 147 -143 3 c-111 2
-144 0 -148 -11z"/>
<path d="M1792 3423 l3 -148 120 -3 c180 -4 165 -18 165 153 l0 145 -145 0
-146 0 3 -147z"/>
<path d="M897 2973 c-4 -3 -7 -471 -7 -1039 l0 -1034 23 -5 c12 -3 481 -4
1042 -3 l1020 3 0 1040 0 1040 -1036 3 c-569 1 -1039 -1 -1042 -5z m1778
-1038 l0 -740 -740 0 -740 0 -3 730 c-1 402 0 736 3 743 3 10 157 12 742 10
l738 -3 0 -740z"/>
<path d="M1490 1935 l0 -445 445 0 445 0 0 445 0 445 -445 0 -445 0 0 -445z"/>
<path d="M3274 2067 c-2 -7 -3 -71 -2 -143 l3 -129 148 -3 147 -3 0 146 0 145
-145 0 c-110 0 -147 -3 -151 -13z"/>
<path d="M11314 1177 c-2 -7 -3 -74 -2 -148 l3 -134 275 -3 c151 -1 285 0 298
3 22 5 23 7 20 148 l-3 142 -293 3 c-234 2 -294 0 -298 -11z"/>
</g>
</svg>
